<!--?xml version="1.0" encoding="utf-8"?-->
<!-- Generator: Adobe Illustrator 18.0.0, SVG Export Plug-In . SVG Version: 6.00 Build 0)  -->

<svg version="1.1" id="_x32_" xmlns="http://www.w3.org/2000/svg" xmlns:xlink="http://www.w3.org/1999/xlink" x="0px" y="0px" viewBox="0 0 512 512" style="width: 32px; height: 32px; opacity: 1;" xml:space="preserve">
<style type="text/css">
	.st0{fill:#4B4B4B;}
</style>
<g>
	<path class="st0" d="M183.328,326.091c-3.283-4.466-5.325-9.42-5.899-14.331c-0.496-3.553-1.222-6.984-2.163-10.205
		c-1.152-4.107-2.198-7.183-3.4-9.97c-0.683-1.624-1.48-3.194-2.276-4.755c-0.738-1.6-1.569-3.201-2.459-4.739
		c-1.609-2.788-3.533-5.434-5.466-8.081l-0.594-0.82c-1.542-2.014-3.17-3.912-4.911-5.653c-1.659-1.804-3.346-3.522-5.153-5.091
		c-3.478-2.873-7.23-5.883-11.474-8.312c-10.517-6.219-15.167-19.43-10.591-30.088c5.731-13.718,7.675-26.726,5.946-39.758
		c-0.644-4.794-2.526-9.542-5.93-14.94c-2.616-4.33-6.106-8.811-9.799-13.558l-4.806-6.114c-3.299-4.154-6.707-8.448-9.846-12.696
		c-4.38-5.836-8.358-11.579-11.505-16.612c-1.749-2.822-3.732-5.333-6.074-7.675c-2.393-2.424-4.982-4.36-7.687-5.758
		c-2.986-1.554-6.11-2.413-9.276-2.553l-0.929-0.02c-3.186,0-6.492,0.738-9.561,2.128c-7.308,3.213-14.691,7.699-21.351,12.977
		c-7.691,6.004-14.605,13.226-20.546,21.472c-6.2,8.55-10.966,18.161-14.168,28.561c-3.182,10.998-4.162,22.014-2.838,31.864
		c1.835,13.812,5.914,26.582,11.798,36.924c2.791,5.313,6.348,9.822,9.467,13.64c2.959,3.474,6.418,6.707,10.884,10.178
		c12.473,9.381,21.812,24.825,24.978,41.323c1.526,7.351,3.51,13.496,6.063,18.778c1.417,3.104,3.045,6.238,4.821,9.291
		c1.89,2.983,3.932,5.911,6.145,8.808c2.714,3.63,5.887,7.07,10.295,11.15c1.804,1.686,3.635,3.248,5.501,4.763
		c1.893,1.476,3.845,2.78,5.77,4.021c4.302,2.741,8.151,4.822,11.778,6.364c3.982,1.624,7.98,2.897,11.884,3.787
		c6.403,1.542,12.145,3.959,17.072,7.176c1.307,0.894,2.516,1.8,3.684,2.717c0.266,0.211,0.532,0.418,0.796,0.628
		c1.844,1.499,3.472,3.049,4.976,4.638c0.862,0.91,1.688,1.854,2.476,2.838c0.576,0.726,1.175,1.44,1.692,2.186
		c3.209,4.755,7.492,9.221,12.731,13.262c3.373,2.573,6.168,4.408,8.792,5.774c3.057,1.569,6.141,2.873,9.174,3.872
		c3.268,1.07,6.25,1.796,9.12,2.226c2.069,0.3,4.138,0.445,6.168,0.445c0.666,0,1.356-0.066,2.112-0.226
		c0.051-0.004,0.105,0.008,0.158,0.008c-0.002-0.008-0.004-0.02-0.006-0.028c0.059-0.012,0.101,0,0.16-0.016
		c-1.858-6.867-2.799-14.066-2.799-21.39c0-3.146,0.187-6.473,0.48-10.029c-6.348-3.611-14.612-9.088-23.279-15.432
		c-17.954-13.375-44.068-35.764-66.504-66.445c-10.447-14.312-19.492-29.935-26.168-45.168
		c-5.942-13.476-10.42-27.523-12.949-40.617c-4.419-22.862-2.932-37.189-1.437-38.895c0.894,0,1.847,4.294,3.283,10.794
		c1.433,6.465,3.393,15.319,6.555,25.992c3.732,12.602,8.741,25.372,14.886,37.962c7.086,14.484,15.78,28.834,25.844,42.65
		c20.804,28.44,44.056,50.748,61.991,67.007c4.002,3.592,7.691,6.852,10.978,9.756c2.28,2.014,4.343,3.799,6.35,5.419
		c0.418,0.375,0.891,0.792,1.286,1.148c0.006-0.023,0.014-0.05,0.019-0.078c0.045,0.035,0.092,0.078,0.137,0.11
		c0.531-2.678,1.183-5.302,1.944-7.894c1.694-5.708,0.5-12.481-3.119-17.673C190.851,344.967,186.408,335.894,183.328,326.091z" style="fill: rgb(75, 75, 75);"></path>
	<path class="st0" d="M508.589,169.5c-3.154-10.338-7.921-19.945-14.168-28.561c-0.939-1.304-2.054-2.413-3.041-3.666
		c-1.175-1.488-2.372-2.932-3.6-4.334c-2.029-2.315-4.131-4.513-6.326-6.617c-1.438-1.378-2.892-2.702-4.369-3.962
		c-1.086-0.929-2.062-2.01-3.182-2.889c-6.734-5.317-14.124-9.803-21.374-12.981c-3.115-1.413-6.332-2.128-9.557-2.128l-0.937,0.02
		c-3.178,0.14-6.289,0.999-9.248,2.553c-2.686,1.374-5.212,3.256-7.714,5.758c-2.342,2.342-4.326,4.853-6.074,7.675
		c-3.076,4.97-7.043,10.712-11.478,16.612c-3.24,4.349-6.723,8.752-10.092,13.008l-3.869,4.908
		c-3.962,5.063-7.702,9.846-10.49,14.448c-3.381,5.317-5.274,10.068-5.958,14.944c-1.71,13.082,0.234,26.086,5.946,39.758
		c4.599,10.642-0.054,23.861-10.587,30.088c-4.326,2.471-8.027,5.462-11.45,8.312c-1.835,1.569-3.521,3.287-5.145,5.087
		c-1.745,1.745-3.404,3.642-5.259,6.086c-1.983,2.725-4.033,5.544-5.715,8.472c-0.89,1.538-1.718,3.139-2.491,4.732l-0.394,0.808
		c-0.64,1.3-1.284,2.608-1.846,3.955c-1.23,2.787-2.311,5.957-3.404,9.966c-0.386,1.332-0.742,2.659-1.07,4.01
		c-2.014,17.583-8.101,34.023-17.599,47.546c-3.619,5.196-4.814,11.966-3.119,17.673c0.407,1.335,0.817,2.733,1.232,4.119
		c0.143,0.593,0.326,1.171,0.457,1.768c0.018-0.016,0.04-0.035,0.057-0.051c0.02,0.058,0.031,0.113,0.051,0.168l16.299-14.464
		c18.001-16.354,41.312-38.746,61.956-67.007c10.162-13.956,18.856-28.308,25.844-42.65c6.102-12.446,11.111-25.212,14.886-37.962
		c3.205-10.759,5.176-19.66,6.613-26.156c1.347-6.09,2.327-10.513,3.369-10.513c0.016,0,0.027,0,0.043,0.004
		c1.316,1.593,2.822,15.936-1.593,38.774c-2.573,13.148-7.062,27.195-12.984,40.617c-6.672,15.237-15.717,30.857-26.164,45.168
		c-22.346,30.595-48.483,53.024-66.476,66.445c-7.534,5.528-14.749,10.377-20.937,14.171c0.512,3.764,0.769,7.562,0.769,11.29
		c0,7.371-0.941,14.585-2.803,21.448l-0.054,0.203h0.214c1.894-0.031,3.85-0.148,5.805-0.445c2.858-0.426,5.915-1.171,9.092-2.226
		c3.068-1.003,6.156-2.303,9.174-3.872c2.682-1.382,5.473-3.217,8.792-5.774c5.243-4.021,9.534-8.483,12.758-13.262
		c0.501-0.73,1.084-1.425,1.643-2.132c0.812-1.027,1.667-2.007,2.562-2.952c1.47-1.55,3.062-3.06,4.862-4.524
		c0.32-0.262,0.643-0.512,0.968-0.765c1.14-0.89,2.314-1.769,3.586-2.635c4.907-3.217,10.65-5.637,17.072-7.176
		c3.865-0.882,7.859-2.155,11.864-3.791c3.623-1.526,7.363-3.548,11.774-6.36c1.952-1.241,3.904-2.545,5.801-4.025
		c1.835-1.511,3.693-3.072,5.501-4.759c4.435-4.107,7.601-7.55,10.264-11.15c2.213-2.897,4.255-5.825,6.145-8.815
		c1.807-3.045,3.404-6.176,4.852-9.276c2.553-5.29,4.536-11.434,6.063-18.79c3.17-16.51,12.497-31.954,24.946-41.319
		c4.345-3.35,7.905-6.68,10.888-10.182c3.115-3.814,6.672-8.323,9.463-13.629c5.875-10.287,9.955-23.056,11.798-36.931
		C512.751,191.515,511.771,180.498,508.589,169.5z" style="fill: rgb(75, 75, 75);"></path>
	<path class="st0" d="M301.446,341.453c9.459-13.5,14.671-30.841,14.671-48.83c0-12.633-2.569-25.071-7.425-35.963
		c-6.207-13.937-4.494-30.923,4.263-42.264c11.243-14.562,17.185-33.625,17.185-55.124c0-34.011-33.402-68.088-53.312-85.375
		c-5.676-4.95-12.418-7.57-19.5-7.57c-7.078,0-13.82,2.619-19.5,7.57c-19.898,17.283-53.281,51.348-53.281,85.375
		c0,21.519,5.934,40.586,17.158,55.124c8.756,11.345,10.47,28.327,4.259,42.264c-4.856,10.904-7.425,23.338-7.425,35.963
		c0,17.989,5.212,35.33,14.671,48.83c2.46,3.498,4.38,7.456,5.708,11.759c2.401,7.816,2.491,15.904,0.266,23.381
		c-1.71,5.742-2.577,11.766-2.577,17.907c0,5.184,0.609,10.244,1.808,15.03c5.255,21.62,20.894,36.143,38.914,36.143
		c17.42,0,32.902-13.906,38.536-34.6c1.448-5.294,2.186-10.873,2.186-16.572c0-6.246-0.866-12.274-2.576-17.907
		c-2.702-9.054-1.991-19.016,2.007-28.054C298.572,346.013,299.908,343.632,301.446,341.453z M257.327,143.434
		c3.233,0,6.692,55.783,6.692,138.824s-3.459,138.828-6.692,138.828c-3.217,0-6.66-55.788-6.66-138.828
		S254.11,143.434,257.327,143.434z" style="fill: rgb(75, 75, 75);"></path>
</g>
</svg>
