<!--?xml version="1.0" encoding="utf-8"?-->
<!-- Generator: Adobe Illustrator 18.1.1, SVG Export Plug-In . SVG Version: 6.00 Build 0)  -->

<svg version="1.1" id="_x32_" xmlns="http://www.w3.org/2000/svg" xmlns:xlink="http://www.w3.org/1999/xlink" x="0px" y="0px" viewBox="0 0 512 512" style="width: 32px; height: 32px; opacity: 1;" xml:space="preserve">
<style type="text/css">
	.st0{fill:#4B4B4B;}
</style>
<g>
	<polygon class="st0" points="220.511,360.04 220.511,401.009 256,421.504 291.489,401.009 291.489,360.04 256,339.551 	" style="fill: rgb(75, 75, 75);"></polygon>
	<path class="st0" d="M317.383,116.485h15.836L362.015,0H149.977L155,20.32h-15.674v43.339h26.393l13.062,52.826h15.836
		C168.062,258.71,105.029,371.721,105.029,512h146.17h9.594h146.177C406.971,371.721,343.937,258.71,317.383,116.485z
		 M214.02,123.252h83.959c7.332,38.438,17.202,74.668,27.685,109.718h-139.33C196.818,197.92,206.689,161.69,214.02,123.252z
		 M310.219,411.836L256,443.136l-54.22-31.301v-57.203v-5.413L256,317.919l54.22,31.301V411.836z" style="fill: rgb(75, 75, 75);"></path>
</g>
</svg>
